<mxfile host="app.diagrams.net" modified="2022-10-06T10:41:48.558Z" agent="5.0 (X11; Ubuntu)" etag="4Xw9H1J2IChVSeIswWzw" version="20.3.1" type="github">
  <diagram id="6NrG4L8YMdeU4cRq5bKQ" name="Page-1">
    <mxGraphModel dx="2202" dy="1893" grid="1" gridSize="10" guides="1" tooltips="1" connect="1" arrows="1" fold="1" page="1" pageScale="1" pageWidth="850" pageHeight="1100" math="0" shadow="0">
      <root>
        <mxCell id="0" />
        <mxCell id="1" parent="0" />
        <mxCell id="v9xORlZulU85c1xM_5wr-1" value="" style="whiteSpace=wrap;html=1;aspect=fixed;fontSize=30;shadow=0;" parent="1" vertex="1">
          <mxGeometry x="-840" y="-330" width="1170" height="1170" as="geometry" />
        </mxCell>
        <mxCell id="9A4aqB5_fYHDQotbymqq-1" value="1" style="ellipse;whiteSpace=wrap;html=1;aspect=fixed;fontSize=30;fillColor=#fff2cc;strokeColor=#d6b656;" parent="1" vertex="1">
          <mxGeometry x="-590" y="30" width="80" height="80" as="geometry" />
        </mxCell>
        <mxCell id="cI44RAF6GDUkBXrElIy0-2" value="1" style="ellipse;whiteSpace=wrap;html=1;aspect=fixed;fontSize=30;fillColor=#fff2cc;strokeColor=#d6b656;" parent="1" vertex="1">
          <mxGeometry x="-600" y="190" width="80" height="80" as="geometry" />
        </mxCell>
        <mxCell id="cI44RAF6GDUkBXrElIy0-3" value="" style="ellipse;whiteSpace=wrap;html=1;aspect=fixed;fontSize=30;" parent="1" vertex="1">
          <mxGeometry x="-600" y="350" width="80" height="80" as="geometry" />
        </mxCell>
        <mxCell id="cI44RAF6GDUkBXrElIy0-4" value="" style="ellipse;whiteSpace=wrap;html=1;aspect=fixed;fontSize=30;" parent="1" vertex="1">
          <mxGeometry x="-590" y="510" width="80" height="80" as="geometry" />
        </mxCell>
        <mxCell id="cI44RAF6GDUkBXrElIy0-5" value="1" style="ellipse;whiteSpace=wrap;html=1;aspect=fixed;fontSize=30;fillColor=#fff2cc;strokeColor=#d6b656;" parent="1" vertex="1">
          <mxGeometry x="-310" y="110" width="80" height="80" as="geometry" />
        </mxCell>
        <mxCell id="cI44RAF6GDUkBXrElIy0-6" value="1" style="ellipse;whiteSpace=wrap;html=1;aspect=fixed;fontSize=30;fillColor=#fff2cc;strokeColor=#d6b656;" parent="1" vertex="1">
          <mxGeometry x="-310" y="270" width="80" height="80" as="geometry" />
        </mxCell>
        <mxCell id="cI44RAF6GDUkBXrElIy0-7" value="" style="ellipse;whiteSpace=wrap;html=1;aspect=fixed;fontSize=30;" parent="1" vertex="1">
          <mxGeometry x="-310" y="430" width="80" height="80" as="geometry" />
        </mxCell>
        <mxCell id="cI44RAF6GDUkBXrElIy0-8" value="0.7" style="ellipse;whiteSpace=wrap;html=1;aspect=fixed;fontSize=30;fillColor=#fff2cc;strokeColor=#d6b656;" parent="1" vertex="1">
          <mxGeometry x="-80" y="190" width="80" height="80" as="geometry" />
        </mxCell>
        <mxCell id="cI44RAF6GDUkBXrElIy0-9" value="" style="ellipse;whiteSpace=wrap;html=1;aspect=fixed;fontSize=30;" parent="1" vertex="1">
          <mxGeometry x="-80" y="350" width="80" height="80" as="geometry" />
        </mxCell>
        <mxCell id="CRC3c0U19tb7JDUUnIbQ-1" value="" style="endArrow=classic;html=1;rounded=0;exitX=1;exitY=0.5;exitDx=0;exitDy=0;fillColor=#fff2cc;strokeColor=#d6b656;fontSize=25;" parent="1" source="9A4aqB5_fYHDQotbymqq-1" target="cI44RAF6GDUkBXrElIy0-5" edge="1">
          <mxGeometry width="50" height="50" relative="1" as="geometry">
            <mxPoint x="-500" y="70" as="sourcePoint" />
            <mxPoint x="-130" y="320" as="targetPoint" />
            <Array as="points" />
          </mxGeometry>
        </mxCell>
        <mxCell id="CRC3c0U19tb7JDUUnIbQ-2" value="" style="endArrow=classic;html=1;rounded=0;fillColor=#fff2cc;strokeColor=#d6b656;fontSize=25;" parent="1" source="cI44RAF6GDUkBXrElIy0-2" target="cI44RAF6GDUkBXrElIy0-5" edge="1">
          <mxGeometry width="50" height="50" relative="1" as="geometry">
            <mxPoint x="-180" y="370" as="sourcePoint" />
            <mxPoint x="-130" y="320" as="targetPoint" />
          </mxGeometry>
        </mxCell>
        <mxCell id="CRC3c0U19tb7JDUUnIbQ-3" value="" style="endArrow=classic;html=1;rounded=0;exitX=1.025;exitY=0.6;exitDx=0;exitDy=0;exitPerimeter=0;entryX=-0.037;entryY=0.4;entryDx=0;entryDy=0;entryPerimeter=0;fillColor=#fff2cc;strokeColor=#d6b656;fontSize=25;" parent="1" source="cI44RAF6GDUkBXrElIy0-2" target="cI44RAF6GDUkBXrElIy0-6" edge="1">
          <mxGeometry width="50" height="50" relative="1" as="geometry">
            <mxPoint x="-180" y="370" as="sourcePoint" />
            <mxPoint x="-130" y="320" as="targetPoint" />
            <Array as="points" />
          </mxGeometry>
        </mxCell>
        <mxCell id="CRC3c0U19tb7JDUUnIbQ-4" value="" style="endArrow=classic;html=1;rounded=0;exitX=1;exitY=0.5;exitDx=0;exitDy=0;entryX=0.063;entryY=0.7;entryDx=0;entryDy=0;entryPerimeter=0;fillColor=#fff2cc;strokeColor=#d6b656;" parent="1" source="cI44RAF6GDUkBXrElIy0-6" target="cI44RAF6GDUkBXrElIy0-8" edge="1">
          <mxGeometry width="50" height="50" relative="1" as="geometry">
            <mxPoint x="-180" y="370" as="sourcePoint" />
            <mxPoint x="-130" y="320" as="targetPoint" />
          </mxGeometry>
        </mxCell>
        <mxCell id="CRC3c0U19tb7JDUUnIbQ-5" value="" style="endArrow=classic;html=1;rounded=0;fillColor=#fff2cc;strokeColor=#d6b656;" parent="1" source="cI44RAF6GDUkBXrElIy0-5" target="cI44RAF6GDUkBXrElIy0-8" edge="1">
          <mxGeometry width="50" height="50" relative="1" as="geometry">
            <mxPoint x="-180" y="370" as="sourcePoint" />
            <mxPoint x="-130" y="320" as="targetPoint" />
          </mxGeometry>
        </mxCell>
        <mxCell id="CRC3c0U19tb7JDUUnIbQ-6" value="" style="endArrow=classic;html=1;rounded=0;" parent="1" source="cI44RAF6GDUkBXrElIy0-8" target="cI44RAF6GDUkBXrElIy0-7" edge="1">
          <mxGeometry width="50" height="50" relative="1" as="geometry">
            <mxPoint x="-180" y="370" as="sourcePoint" />
            <mxPoint x="-130" y="320" as="targetPoint" />
          </mxGeometry>
        </mxCell>
        <mxCell id="CRC3c0U19tb7JDUUnIbQ-7" value="" style="endArrow=classic;html=1;rounded=0;" parent="1" source="cI44RAF6GDUkBXrElIy0-3" target="cI44RAF6GDUkBXrElIy0-7" edge="1">
          <mxGeometry width="50" height="50" relative="1" as="geometry">
            <mxPoint x="-180" y="370" as="sourcePoint" />
            <mxPoint x="-130" y="320" as="targetPoint" />
          </mxGeometry>
        </mxCell>
        <mxCell id="CRC3c0U19tb7JDUUnIbQ-8" value="" style="endArrow=classic;html=1;rounded=0;" parent="1" source="cI44RAF6GDUkBXrElIy0-4" target="cI44RAF6GDUkBXrElIy0-7" edge="1">
          <mxGeometry width="50" height="50" relative="1" as="geometry">
            <mxPoint x="-180" y="370" as="sourcePoint" />
            <mxPoint x="-130" y="320" as="targetPoint" />
          </mxGeometry>
        </mxCell>
        <mxCell id="CRC3c0U19tb7JDUUnIbQ-9" value="" style="endArrow=classic;html=1;rounded=0;exitX=1;exitY=0.5;exitDx=0;exitDy=0;" parent="1" source="cI44RAF6GDUkBXrElIy0-7" target="cI44RAF6GDUkBXrElIy0-9" edge="1">
          <mxGeometry width="50" height="50" relative="1" as="geometry">
            <mxPoint x="-180" y="370" as="sourcePoint" />
            <mxPoint x="-130" y="320" as="targetPoint" />
          </mxGeometry>
        </mxCell>
      </root>
    </mxGraphModel>
  </diagram>
</mxfile>
